<svg width="21" height="14" viewBox="0 0 21 14" fill="none" xmlns="http://www.w3.org/2000/svg">
<path d="M0.103516 0.203125H4.33984C5.30078 0.203125 6.1123 0.349609 6.77441 0.642578C7.44238 0.935547 7.94922 1.36914 8.29492 1.94336C8.64648 2.51172 8.82227 3.21191 8.82227 4.04395C8.82227 4.62988 8.70215 5.16602 8.46191 5.65234C8.22754 6.13281 7.8877 6.54297 7.44238 6.88281C7.00293 7.2168 6.47559 7.46582 5.86035 7.62988L5.38574 7.81445H1.4043L1.38672 6.43457H4.39258C5.00195 6.43457 5.50879 6.3291 5.91309 6.11816C6.31738 5.90137 6.62207 5.61133 6.82715 5.24805C7.03223 4.88477 7.13477 4.4834 7.13477 4.04395C7.13477 3.55176 7.03809 3.12109 6.84473 2.75195C6.65137 2.38281 6.34668 2.09863 5.93066 1.89941C5.52051 1.69434 4.99023 1.5918 4.33984 1.5918H1.7998V13H0.103516V0.203125ZM7.58301 13L4.47168 7.19922L6.23828 7.19043L9.39355 12.8945V13H7.58301ZM18.5166 0.203125H20.2041V8.86035C20.2041 9.82129 19.9902 10.6211 19.5625 11.2598C19.1348 11.8984 18.5664 12.3789 17.8574 12.7012C17.1543 13.0176 16.3896 13.1758 15.5635 13.1758C14.6963 13.1758 13.9111 13.0176 13.208 12.7012C12.5107 12.3789 11.957 11.8984 11.5469 11.2598C11.1426 10.6211 10.9404 9.82129 10.9404 8.86035V0.203125H12.6191V8.86035C12.6191 9.52832 12.7422 10.0791 12.9883 10.5127C13.2344 10.9463 13.5771 11.2686 14.0166 11.4795C14.4619 11.6904 14.9775 11.7959 15.5635 11.7959C16.1553 11.7959 16.6709 11.6904 17.1104 11.4795C17.5557 11.2686 17.9014 10.9463 18.1475 10.5127C18.3936 10.0791 18.5166 9.52832 18.5166 8.86035V0.203125Z" fill="white"/>
</svg>
